<?xml version="1.0" standalone="no"?><!DOCTYPE svg PUBLIC "-//W3C//DTD SVG 1.1//EN" "http://www.w3.org/Graphics/SVG/1.1/DTD/svg11.dtd"><svg t="1759466016016" class="icon" viewBox="0 0 1024 1024" version="1.1" xmlns="http://www.w3.org/2000/svg" p-id="7854" width="24" height="24" xmlns:xlink="http://www.w3.org/1999/xlink"><path d="M643.008 430.4a53.824 53.824 0 1 0 0-107.712 53.824 53.824 0 0 0 0 107.712z m-262.08 0a53.824 53.824 0 1 0 0-107.712 53.824 53.824 0 0 0 0 107.712zM723.84 544.64H300.16a16.128 16.128 0 0 0-16.192 16.064v0.128C283.968 674.944 391.04 780.8 512 780.8c118.016 0 228.032-105.28 228.032-219.968v-0.128a16.128 16.128 0 0 0-16.192-16.064z" fill="#cdcdcd" p-id="7855"></path><path d="M512 64a448 448 0 0 1 443.456 512h-60.8a388.352 388.352 0 0 0-771.2-63.872 388.096 388.096 0 0 0 388.608 388.096L512 960A448 448 0 0 1 512 64z" fill="#cdcdcd" p-id="7856"></path><path d="M863.936 672a32 32 0 0 1 32 32v96h96a32 32 0 1 1 0 64h-96V960a32 32 0 1 1-64 0v-96h-96a32 32 0 0 1 0-64h96V704a32 32 0 0 1 32-32z" fill="#cdcdcd" p-id="7857"></path></svg>